# xmcd
#
# Track frame offsets:
#	150
#	2013
#	17111
#	35978
#	48021
#	63859
#	80566
#	96876
#	112976
#	131432
#	147454
#	166162
#	183086
#	199798
#	213115
#	230488
#	246256
#	264084
#
# Disc length: 4125 seconds
# Revision: 0
# Processed by: cddbd v1.5.2PL0 Copyright (c) Steve Scherf et al.
# Submitted via: dBpowerAMP V12.0
#
DISCID=e9101b12
DTITLE=Alesha Dixon - The Alesha Show: Encore
DYEAR=2009
DGENRE=Pop
TTITLE0=Welcome To The Alesha Show
TTITLE1=Let's Get Excited
TTITLE2=Breathe Slow
TTITLE3=Cinderella Shoe
TTITLE4=The Boy Does Nothing
TTITLE5=Chasing Ghosts
TTITLE6=Play Me
TTITLE7=Hand It Over
TTITLE8=Do You Know The way It Feels
TTITLE9=Can I Begin
TTITLE10=Italians Do It Better
TTITLE11=Ooh Baby I Like It Like That
TTITLE12=Don't Ever Let Me Go
TTITLE13=I'm Thru
TTITLE14=To Love Again
TTITLE15=Shake
TTITLE16=The Light
TTITLE17=All Out Of Tune - Mystery
EXTD=
EXTT0=
EXTT1=
EXTT2=
EXTT3=
EXTT4=
EXTT5=
EXTT6=
EXTT7=
EXTT8=
EXTT9=
EXTT10=
EXTT11=
EXTT12=
EXTT13=
EXTT14=
EXTT15=
EXTT16=
EXTT17=
PLAYORDER=
